<svg id="Layer_1" data-name="Layer 1" xmlns="http://www.w3.org/2000/svg" width="587" height="586.87" viewBox="0 0 587 586.87">
  <defs>
    <style>
      .cls-1 {
        fill: #fff;
      }
    </style>
  </defs>
  <title>facebook_nyhedsbrev</title>
  <path class="cls-1" d="M339.14,44.89c162.11,0,293.37,131.22,293.49,293.4S501.17,631.83,338.77,631.76C176.86,631.69,45.61,500.27,45.63,338.25S177,44.89,339.14,44.89ZM291.71,527.77h75.84V338.07h52.78c1.9-21.22,3.78-42.23,5.69-63.5H367.44v-2.52c0-9.4,0-18.8,0-28.2,0-4.2.08-8.41.4-12.59.68-8.92,5.17-13.19,14.09-13.63,1.42-.07,2.85-.07,4.27-.07h39.6V151.65c-.57-.05-1-.13-1.4-.13-17.87,0-35.74-.05-53.62.1-14,.11-27.68,1.77-40.78,7s-23.44,13.58-30.06,26.2c-5.84,11.16-8,23.22-8.17,35.65-.18,17.16-.06,34.33-.07,51.49,0,.83,0,1.66,0,2.74H252.4V339h39.31Z" transform="translate(-45.63 -44.89)"/>
</svg>
