<svg id="Layer_1" data-name="Layer 1" xmlns="http://www.w3.org/2000/svg" width="587.13" height="587.37" viewBox="0 0 587.13 587.37">
  <defs>
    <style>
      .cls-1 {
        fill: #fff;
      }
    </style>
  </defs>
  <title>instagram_nyhedsbrev</title>
  <g>
    <path class="cls-1" d="M350.48,48.63A292.88,292.88,0,0,1,644,342.94C643.74,504.79,512.28,636,350.45,636,188,636,56.66,504.16,56.91,341.39,57.16,179.22,188.11,48.63,350.48,48.63Zm158.44,297.6c0-31.05.16-62.1-.05-93.16-.27-40.65-24.82-66.08-65.19-66.37q-94.67-.69-189.32,0c-40.32.3-65,25.86-65.07,66.42q-.22,93.92,0,187.82c.1,40,25.93,65.69,65.84,65.75q93.92.15,187.82,0c39.8-.07,65.61-25.79,65.92-65.8C509.11,409.34,508.92,377.79,508.92,346.23Z" transform="translate(-56.91 -48.63)"/>
    <path class="cls-1" d="M220.71,315h45.8c-11.92,43.17-2.2,79,34.92,104.81,28.81,20,67,19.24,96.13-.39,32.84-22.13,43.71-54.7,34.36-104.36H477c0,45.13.69,89.57-.38,134-.38,15.3-12.79,25.42-28.45,25.51q-99.14.56-198.29,0c-16.16-.1-28.38-10.49-28.8-26.94C220,403.69,220.71,359.75,220.71,315Z" transform="translate(-56.91 -48.63)"/>
    <path class="cls-1" d="M348.71,402.25c-31.12-.1-56.54-25.73-55.9-56.36.64-30.28,25.73-55.28,55.74-55.54,30.53-.25,56.68,25.6,56.75,56.1C405.36,377.26,379.92,402.35,348.71,402.25Z" transform="translate(-56.91 -48.63)"/>
    <path class="cls-1" d="M418.85,224.55h52.33v52.13H418.85Z" transform="translate(-56.91 -48.63)"/>
  </g>
</svg>
